<svg width="19" height="19" viewBox="0 0 19 19" fill="none" xmlns="http://www.w3.org/2000/svg">
<path d="M8.51183 0.867003C8.68703 -0.261843 10.313 -0.261843 10.4882 0.867003L11.4031 6.7621C11.4699 7.19246 11.8075 7.53011 12.2379 7.5969L18.133 8.51183C19.2618 8.68703 19.2618 10.313 18.133 10.4882L12.2379 11.4031C11.8075 11.4699 11.4699 11.8075 11.4031 12.2379L10.4882 18.133C10.313 19.2618 8.68703 19.2618 8.51183 18.133L7.5969 12.2379C7.53011 11.8075 7.19246 11.4699 6.7621 11.4031L0.867003 10.4882C-0.261843 10.313 -0.261843 8.68703 0.867003 8.51183L6.7621 7.5969C7.19246 7.53011 7.53011 7.19246 7.5969 6.7621L8.51183 0.867003Z" fill="#D9D9D9"/>
</svg>
